<svg xmlns="http://www.w3.org/2000/svg" viewBox="0 0 55.26 55.18"><defs><style>.cls-1{fill:#047d9c;}</style></defs><title>Ресурс 7</title><g id="Слой_2" data-name="Слой 2"><g id="OBJECTS"><path class="cls-1" d="M35.57,0a.84.84,0,0,1,.55.21.83.83,0,0,1,.06,1.16l-7.67,8.5a.83.83,0,0,1-.06.21V12.9L34.2,6.52a.81.81,0,1,1,1.21,1.09l-6.87,7.63a1.17,1.17,0,0,1-.09.24V25.76l6.2-6.2a.72.72,0,0,1,.09-.2l.48-9a.71.71,0,0,1,.71-.68.72.72,0,0,1,.72.76L36.25,18,38,16.21A.7.7,0,0,1,38.1,16l.53-10a.71.71,0,0,1,.71-.68.72.72,0,0,1,.72.75l-.45,8.53,3.16-3.16a.75.75,0,0,1,.51-.21.71.71,0,0,1,.51.21.72.72,0,0,1,0,1l-3.17,3.16,8.54-.46a.73.73,0,0,1,.76.69.72.72,0,0,1-.68.75l-10.05.53a.8.8,0,0,1-.16.08l-1.71,1.7,7.43-.39a.73.73,0,0,1,.76.68.72.72,0,0,1-.68.75l-9,.48-6.36,6.34H40l7.69-6.88a.8.8,0,0,1,.54-.21.82.82,0,0,1,.61.27.81.81,0,0,1-.06,1.15l-6.3,5.67h2.74a.48.48,0,0,1,.2-.07l8.52-7.66A.82.82,0,0,1,55,20.27l-7.24,6.51h5.09a.82.82,0,0,1,.82.81.82.82,0,0,1-.82.82H47.75L55,34.91a.83.83,0,0,1,.06,1.16.82.82,0,0,1-.61.27.84.84,0,0,1-.55-.21l-8.52-7.66-.2-.06H42.34l6.39,5.74a.82.82,0,0,1-.55,1.43.8.8,0,0,1-.54-.21L40,28.5a.85.85,0,0,1-.24-.09H29.46l6.32,6.31,9,.5a.72.72,0,0,1,0,1.43l-7.47-.39L39,38a.67.67,0,0,1,.17.08l10.05.53a.72.72,0,0,1,0,1.44l-8.58-.46,3.17,3.16a.72.72,0,0,1-.51,1.23.75.75,0,0,1-.51-.21l-3.16-3.16.45,8.53a.72.72,0,0,1-1.43.07l-.53-10A.56.56,0,0,1,38,39l-1.76-1.75.4,7.53a.72.72,0,0,1-1.43.07l-.48-9a.72.72,0,0,1-.09-.2l-6.2-6.2V39.7a1.17,1.17,0,0,1,.09.24l6.87,7.63a.81.81,0,1,1-1.21,1.09l-5.75-6.38v2.83a.66.66,0,0,1,.06.2l7.67,8.51A.82.82,0,0,1,35,54.91l-6.51-7.23v5.09a.82.82,0,1,1-1.64,0V47.68L20.3,54.91a.84.84,0,0,1-.62.27.82.82,0,0,1-.6-1.36l7.67-8.51a.66.66,0,0,1,.06-.2V42.37l-5.67,6.29a.81.81,0,1,1-1.21-1.09l6.87-7.63V29.42l-6.32,6.32-.5,9a.72.72,0,0,1-.72.68.71.71,0,0,1-.71-.75L19,37.27,17.25,39a.91.91,0,0,1-.09.17l-.53,10a.72.72,0,0,1-1.43-.07l.45-8.53-3.17,3.16a.71.71,0,0,1-1,0,.72.72,0,0,1,0-1l3.16-3.16L6.09,40A.72.72,0,0,1,6,38.57l10-.53.17-.08L18,36.2l-7.54.4a.73.73,0,0,1-.76-.68.72.72,0,0,1,.68-.75l9-.48a.78.78,0,0,1,.21-.09l6.2-6.19H15.5a1.17,1.17,0,0,1-.24.09L7.62,35.37a.8.8,0,0,1-.54.21.81.81,0,0,1-.61-.28.8.8,0,0,1,.06-1.15l6.39-5.74H10.08a.66.66,0,0,1-.2.06L1.36,36.13a.8.8,0,0,1-.54.21.8.8,0,0,1-.61-.27.82.82,0,0,1,.06-1.16l7.24-6.5H2.41a.82.82,0,0,1-.81-.82.81.81,0,0,1,.81-.81h5.1L.27,20.27a.82.82,0,0,1-.06-1.16.8.8,0,0,1,.61-.27.8.8,0,0,1,.54.21l8.53,7.66a.53.53,0,0,1,.2.07h2.74l-6.3-5.67A.81.81,0,1,1,7.62,19.9l7.64,6.86,10.53,0-6.2-6.2a.78.78,0,0,1-.21-.09l-9-.48a.72.72,0,0,1-.68-.75.73.73,0,0,1,.72-.68L18,19l-1.76-1.76-.17-.08L6,16.61a.72.72,0,0,1,0-1.44l8.58.46-3.16-3.16a.72.72,0,0,1,0-1,.71.71,0,0,1,1,0l3.17,3.16L15.2,6.08a.71.71,0,0,1,.68-.75.72.72,0,0,1,.75.68l.53,10a1.4,1.4,0,0,1,.09.17l1.7,1.7-.39-7.42a.71.71,0,0,1,.67-.76.73.73,0,0,1,.76.68l.47,9,6.35,6.35V15.29L19.93,7.61A.81.81,0,0,1,20,6.46a.81.81,0,0,1,1.15.06l5.67,6.29V10.08a.83.83,0,0,1-.06-.21l-7.67-8.5A.83.83,0,0,1,19.14.21.82.82,0,0,1,19.68,0a.84.84,0,0,1,.62.27L26.81,7.5V2.41a.82.82,0,0,1,1.64,0V7.5L35,.27A.82.82,0,0,1,35.57,0Z"/></g></g></svg>